<svg width="51" height="51" viewBox="0 0 51 51" fill="none" xmlns="http://www.w3.org/2000/svg">
    <path fill-rule="evenodd" clip-rule="evenodd"
        d="M4.78125 15.9588V35.3643C4.78125 36.7439 5.51783 38.0181 6.71341 38.7069L23.5748 48.4179C24.7663 49.1043 26.2334 49.1043 27.425 48.4179L44.2866 38.7069C45.4819 38.0181 46.2188 36.7439 46.2188 35.364V15.9588C46.2188 14.5791 45.4819 13.3046 44.2866 12.6161L27.425 2.90516C26.2334 2.21879 24.7663 2.21879 23.5748 2.90516L6.71341 12.6161C5.51783 13.3046 4.78125 14.5791 4.78125 15.9588Z"
        fill="#614098" />
    <path fill-rule="evenodd" clip-rule="evenodd"
        d="M16.0492 28.7402C16.8942 28.7402 17.5508 28.9562 18.0207 29.3857C18.4906 29.8174 18.7244 30.4355 18.7244 31.2414V33.4604C18.7244 33.7345 18.8391 33.8751 19.0659 33.8828V34.987C18.9403 35.0103 18.8322 35.026 18.7424 35.034C18.6526 35.0419 18.565 35.0451 18.4792 35.0451C18.2276 35.0451 18.034 34.9835 17.8972 34.8573C17.7599 34.7328 17.6767 34.5721 17.6454 34.3766L17.6093 33.9887C17.3351 34.3495 16.9978 34.6246 16.5954 34.817C16.1908 35.0082 15.7592 35.1036 15.2959 35.1036C14.9992 35.1036 14.7227 35.0552 14.4688 34.9575C14.2148 34.8597 13.9965 34.7248 13.8122 34.5529C13.6281 34.3797 13.4817 34.1763 13.376 33.9415C13.2705 33.7064 13.2188 33.4524 13.2188 33.1781C13.2188 32.8893 13.2817 32.6263 13.4076 32.3923C13.5311 32.1575 13.7088 31.9541 13.9402 31.7809C14.1718 31.609 14.4462 31.4765 14.7631 31.3819C15.08 31.2887 15.4309 31.2414 15.8131 31.2414C16.1032 31.2414 16.3885 31.2674 16.6697 31.3179C16.9529 31.3686 17.2068 31.4369 17.434 31.5237V31.1009C17.434 30.6469 17.3057 30.2928 17.0475 30.0376C16.7887 29.7836 16.4155 29.6564 15.93 29.6564C15.6017 29.6564 15.2803 29.7172 14.9634 29.8386C14.6465 29.96 14.3179 30.1343 13.9808 30.3603L13.5829 29.5385C14.3742 29.0067 15.1947 28.7402 16.0492 28.7402ZM32.7099 26.4158V33.2142C32.7099 33.441 32.7686 33.6187 32.8852 33.7481C33.0023 33.8774 33.1665 33.9415 33.3777 33.9415C33.4653 33.9415 33.5644 33.9255 33.6791 33.8952C33.7915 33.8639 33.8993 33.8278 34.0005 33.7898L34.1894 34.7992C34.0005 34.8857 33.778 34.9532 33.5192 35.0047C33.2608 35.0552 33.0292 35.0812 32.827 35.0812C32.3794 35.0812 32.0333 34.9599 31.7881 34.7171C31.5411 34.4743 31.4173 34.129 31.4173 33.6838V26.4158H32.7099ZM27.9552 28.7401C28.3149 28.7401 28.614 28.8089 28.8523 28.946C29.0905 29.0831 29.2818 29.2653 29.4234 29.4913C29.5625 29.7195 29.6614 29.9835 29.7155 30.2848C29.7695 30.5862 29.7987 30.9053 29.7987 31.2413V34.9868H28.5062V31.5459C28.5062 30.9748 28.4116 30.5568 28.2249 30.2903C28.036 30.0239 27.7619 29.8914 27.4022 29.8914C27.0359 29.8914 26.7007 30.0263 26.3995 30.2962C26.0983 30.5658 25.8802 30.9167 25.7476 31.347V34.9868H24.4548V31.5459C24.4548 30.9671 24.3627 30.5467 24.1738 30.2848C23.985 30.0218 23.7153 29.8914 23.3645 29.8914C22.996 29.8914 22.6587 30.0239 22.353 30.2903C22.0493 30.5568 21.8291 30.9053 21.6963 31.3348V34.9868H20.4038V28.8461H21.5797V30.0789C21.8225 29.6486 22.1415 29.3181 22.5349 29.0865C22.9307 28.8562 23.3825 28.7401 23.893 28.7401C24.4009 28.7401 24.8012 28.873 25.0955 29.1394C25.3901 29.4058 25.5699 29.7384 25.6419 30.1376C25.9004 29.6834 26.2242 29.337 26.6154 29.099C27.0064 28.8597 27.454 28.7401 27.9552 28.7401ZM40.5376 31.1101C41.4245 31.9967 41.4245 33.4343 40.5376 34.3212C39.6509 35.2079 38.2134 35.2079 37.3267 34.3212C36.4398 33.4343 36.4398 31.9967 37.3267 31.1101C38.2134 30.2234 39.6509 30.2234 40.5376 31.1101ZM16.0131 31.9809C15.5523 31.9809 15.1745 32.081 14.88 32.28C14.5857 32.48 14.4393 32.7443 14.4393 33.0726C14.4393 33.3783 14.554 33.6347 14.7812 33.8424C15.0083 34.0493 15.2959 34.1526 15.649 34.1526C15.9616 34.1526 16.2583 34.0966 16.5348 33.9829C16.8135 33.8695 17.0315 33.7109 17.1867 33.5074C17.3508 33.3669 17.434 33.2174 17.434 33.0614V32.2508C17.2137 32.1655 16.9821 32.098 16.7348 32.0518C16.4897 32.0045 16.2469 31.9809 16.0131 31.9809Z"
        fill="white" />
</svg>
