<svg width="147" height="47" viewBox="0 0 147 47" fill="none" xmlns="http://www.w3.org/2000/svg">
<path fill-rule="evenodd" clip-rule="evenodd" d="M24.3991 29.4741C23.6557 29.4741 22.9773 29.3238 22.3621 29.0242C21.7483 28.724 21.2231 28.3165 20.7868 27.8021C20.351 27.2878 20.0118 26.688 19.769 26.0016C19.5255 25.3156 19.4043 24.5798 19.4043 23.7936C19.4043 22.965 19.5325 22.1966 19.7901 21.4892C20.0476 20.7815 20.4049 20.1676 20.8618 19.6456C21.3191 19.1235 21.8695 18.7133 22.5124 18.413C23.156 18.1127 23.8634 17.9631 24.6353 17.9631C25.493 17.9631 26.2386 18.145 26.8755 18.5094C27.5111 18.8741 28.0223 19.3779 28.4077 20.0208V18.1769H31.3876V28.6598C31.3876 29.5172 31.2271 30.2887 30.9051 30.9747C30.5831 31.6607 30.1367 32.243 29.5653 32.7223C28.9942 33.2006 28.3078 33.5688 27.5076 33.826C26.707 34.0832 25.8279 34.2118 24.8711 34.2118C23.6557 34.2118 22.6196 34.0194 21.7623 33.6329C20.9046 33.2472 20.1544 32.6898 19.5115 31.961L21.3548 30.096C21.7693 30.5676 22.2836 30.9425 22.8985 31.2214C23.5127 31.4999 24.1707 31.6397 24.8711 31.6397C25.2852 31.6397 25.6776 31.5822 26.0501 31.4677C26.4211 31.3535 26.7497 31.1786 27.0356 30.9425C27.3219 30.7074 27.5472 30.3998 27.7112 30.0214C27.8751 29.6419 27.9578 29.1889 27.9578 28.6598V27.5667C27.6152 28.1956 27.1215 28.6703 26.4786 28.9916C25.8356 29.3136 25.1423 29.4741 24.3991 29.4741ZM25.5785 26.7517C26.1068 26.7517 26.5781 26.6053 26.9932 26.3124C27.4074 26.0198 27.7294 25.6442 27.9578 25.1874V22.8287C27.7294 22.2285 27.3787 21.7538 26.9078 21.4034C26.4358 21.0534 25.9351 20.8778 25.4064 20.8778C25.0347 20.8778 24.6955 20.9605 24.3883 21.1248C24.0806 21.2895 23.8161 21.5106 23.5957 21.7888C23.3733 22.0677 23.2019 22.3893 23.0811 22.7537C22.9588 23.1184 22.8985 23.4933 22.8985 23.8794C22.8985 24.2939 22.9658 24.6765 23.1021 25.0262C23.238 25.3769 23.4272 25.6796 23.6707 25.9371C23.9132 26.1947 24.1956 26.3947 24.5169 26.537C24.8385 26.6803 25.192 26.7517 25.5785 26.7517Z" fill="#99A0A7"/>
<mask id="mask0" mask-type="alpha" maskUnits="userSpaceOnUse" x="0" y="0" width="45" height="46">
<path d="M0 0.350586H44.8304V45.181H0V0.350586Z" fill="white"/>
</mask>
<g mask="url(#mask0)">
<path fill-rule="evenodd" clip-rule="evenodd" d="M22.4154 45.1811C10.0555 45.1811 0 35.1256 0 22.7657C0 10.4061 10.0555 0.350586 22.4154 0.350586C34.775 0.350586 44.8305 10.4061 44.8305 22.7657C44.8305 35.1256 34.775 45.1811 22.4154 45.1811ZM22.4154 3.03019C11.533 3.03019 2.67961 11.8836 2.67961 22.7657C2.67961 33.6481 11.533 42.5015 22.4154 42.5015C33.2975 42.5015 42.1509 33.6481 42.1509 22.7657C42.1509 11.8836 33.2975 3.03019 22.4154 3.03019Z" fill="#99A0A7"/>
</g>
<path fill-rule="evenodd" clip-rule="evenodd" d="M24.9972 15.4318C23.3463 15.4819 21.8895 15.9069 20.6264 16.7071C19.3633 17.5077 18.4696 18.6205 17.9444 20.0458V32.1254H14.6436V12.5434H17.7191V17.0824C18.3942 15.7314 19.2821 14.6379 20.3833 13.7998C21.4831 12.9624 22.6582 12.4929 23.9097 12.3931H24.547C24.7219 12.3931 24.8718 12.406 24.9972 12.4306V15.4318Z" fill="#99A0A7"/>
<path fill-rule="evenodd" clip-rule="evenodd" d="M29.8919 11.6003C30.0366 11.6003 30.1795 11.6147 30.3214 11.6427C30.4633 11.6708 30.601 11.7125 30.7345 11.7682C30.8683 11.8232 30.9952 11.8911 31.1153 11.9714C31.2355 12.052 31.3469 12.1431 31.4489 12.2454C31.5512 12.3477 31.6426 12.4587 31.7229 12.5789C31.8035 12.6994 31.8711 12.8263 31.9264 12.9598C31.9818 13.0933 32.0235 13.2309 32.0519 13.3728C32.0799 13.5147 32.0943 13.658 32.0943 13.8027C32.0943 13.9471 32.0799 14.0904 32.0519 14.2323C32.0235 14.3742 31.9818 14.5119 31.9264 14.6454C31.8711 14.7789 31.8035 14.9061 31.7229 15.0262C31.6426 15.1464 31.5512 15.2575 31.4489 15.3598C31.3469 15.4621 31.2355 15.5535 31.1153 15.6338C30.9952 15.714 30.8683 15.782 30.7345 15.8373C30.601 15.8923 30.4633 15.9344 30.3214 15.9624C30.1795 15.9908 30.0366 16.0048 29.8919 16.0048C29.7472 16.0048 29.6039 15.9908 29.462 15.9624C29.3204 15.9344 29.1827 15.8923 29.0489 15.8373C28.9154 15.782 28.7886 15.714 28.6684 15.6338C28.5482 15.5535 28.4368 15.4621 28.3345 15.3598C28.2325 15.2575 28.1411 15.1464 28.0605 15.0262C27.9803 14.9061 27.9126 14.7789 27.8573 14.6454C27.8019 14.5119 27.7602 14.3742 27.7318 14.2323C27.7035 14.0904 27.6895 13.9471 27.6895 13.8027C27.6895 13.658 27.7035 13.5147 27.7318 13.3728C27.7602 13.2309 27.8019 13.0933 27.8573 12.9598C27.9126 12.8263 27.9803 12.6994 28.0605 12.5789C28.1411 12.4587 28.2325 12.3477 28.3345 12.2454C28.4368 12.1431 28.5482 12.052 28.6684 11.9714C28.7886 11.8911 28.9154 11.8232 29.0489 11.7682C29.1827 11.7125 29.3204 11.6708 29.462 11.6427C29.6039 11.6147 29.7472 11.6003 29.8919 11.6003Z" fill="#99A0A7"/>
<path fill-rule="evenodd" clip-rule="evenodd" d="M66.9469 21.0036C66.0197 21.0328 65.1989 21.2462 64.4824 21.6443C63.7652 22.0424 63.2554 22.6107 62.9516 23.3492V30.2969H60.5635V18.9411H62.7782V21.4815C63.1683 20.6998 63.6788 20.0744 64.3089 19.6031C64.9383 19.1332 65.615 18.876 66.3381 18.8328H66.697C66.7908 18.8328 66.8738 18.8401 66.9469 18.854V21.0036Z" fill="#99A0A7"/>
<path fill-rule="evenodd" clip-rule="evenodd" d="M72.6133 30.5147C71.73 30.5147 70.9264 30.3598 70.2032 30.0474C69.4787 29.7364 68.8599 29.313 68.3468 28.7779C67.8324 28.2422 67.4342 27.6194 67.1517 26.9102C66.8699 26.2017 66.729 25.4479 66.729 24.6517C66.729 23.8554 66.8699 23.099 67.1517 22.3832C67.4342 21.666 67.8324 21.0359 68.3468 20.4935C68.8599 19.9511 69.4787 19.5238 70.2032 19.2127C70.9264 18.9016 71.7373 18.7461 72.6346 18.7461C73.5179 18.7461 74.3175 18.9049 75.0347 19.2233C75.7512 19.5417 76.362 19.9658 76.8692 20.4935C77.3757 21.0226 77.7632 21.6374 78.031 22.3393C78.2982 23.0418 78.4325 23.7756 78.4325 24.5433C78.4325 24.7168 78.4252 24.8796 78.4112 25.0318C78.3966 25.1834 78.382 25.311 78.3673 25.4114H69.2694C69.3132 25.9185 69.4322 26.3745 69.6276 26.7806C69.823 27.1854 70.0763 27.5363 70.3873 27.8334C70.6984 28.1299 71.0533 28.3578 71.4515 28.5174C71.8496 28.6756 72.2657 28.756 72.7004 28.756C73.0181 28.756 73.3331 28.7161 73.6449 28.637C73.9559 28.5572 74.2417 28.4409 74.5023 28.2887C74.7628 28.1372 74.9948 27.9531 75.1975 27.735C75.3996 27.5177 75.5591 27.2797 75.6748 27.0185L77.716 27.6054C77.3251 28.4589 76.6771 29.1574 75.7731 29.6998C74.8679 30.2442 73.815 30.5147 72.6133 30.5147ZM76.0656 23.7623C76.0224 23.2838 75.9034 22.8424 75.7073 22.437C75.5119 22.0315 75.262 21.6886 74.9583 21.4061C74.6545 21.1236 74.2996 20.9029 73.8941 20.7441C73.4887 20.5846 73.062 20.5041 72.6133 20.5041C72.1647 20.5041 71.7413 20.5846 71.3431 20.7441C70.945 20.9029 70.594 21.1236 70.2903 21.4061C69.9859 21.6886 69.7393 22.0315 69.5518 22.437C69.3631 22.8424 69.2474 23.2838 69.2042 23.7623H76.0656Z" fill="#99A0A7"/>
<path fill-rule="evenodd" clip-rule="evenodd" d="M84.3603 30.5147C83.5933 30.5147 82.8848 30.3598 82.2327 30.0474C81.5813 29.7364 81.017 29.313 80.5391 28.7779C80.0612 28.2422 79.6884 27.6167 79.4205 26.8996C79.1533 26.1824 79.019 25.4114 79.019 24.5872C79.019 23.7909 79.1453 23.0418 79.3992 22.3393C79.6525 21.6374 80.0074 21.0186 80.4634 20.4829C80.9193 19.9478 81.4544 19.5237 82.0699 19.2127C82.6847 18.9016 83.362 18.7461 84.1004 18.7461C85.0124 18.7461 85.8159 18.9674 86.5105 19.4081C87.2051 19.8501 87.7481 20.4104 88.1396 21.091V14.447H90.5278V27.4745C90.5278 27.7503 90.575 27.9457 90.6687 28.0614C90.7624 28.1764 90.9332 28.2422 91.1791 28.2568V30.2973C90.9332 30.3405 90.7345 30.3698 90.5816 30.3844C90.4294 30.3984 90.3031 30.4063 90.2014 30.4063C89.7242 30.4063 89.3327 30.2827 89.0289 30.0368C88.7252 29.7915 88.5584 29.4725 88.5298 29.0817L88.4866 28.2342C88.0665 28.9441 87.4942 29.5017 86.7711 29.9072C86.0472 30.3113 85.2437 30.5147 84.3603 30.5147ZM84.9472 28.4741C85.2948 28.4741 85.6418 28.4157 85.9901 28.3C86.3364 28.1844 86.6554 28.0248 86.9445 27.8214C87.2343 27.6194 87.4843 27.3808 87.6936 27.1056C87.9043 26.8304 88.0519 26.534 88.1396 26.2149V23.2406C88.0087 22.8783 87.8239 22.5453 87.5853 22.2416C87.3467 21.9378 87.0748 21.6766 86.7711 21.4606C86.4666 21.2432 86.1449 21.0771 85.8046 20.9601C85.465 20.8444 85.1214 20.7873 84.7737 20.7873C84.2958 20.7873 83.8578 20.8956 83.4597 21.1123C83.0616 21.3296 82.7179 21.6194 82.4281 21.9804C82.1383 22.3433 81.911 22.7554 81.7442 23.218C81.5773 23.6826 81.4943 24.1591 81.4943 24.6517C81.4943 25.1734 81.5853 25.6653 81.7661 26.1279C81.9469 26.5925 82.1962 26.9966 82.5152 27.3442C82.8336 27.6918 83.1991 27.967 83.6119 28.1704C84.0247 28.3718 84.4693 28.4741 84.9472 28.4741Z" fill="#99A0A7"/>
<path fill-rule="evenodd" clip-rule="evenodd" d="M99.3648 30.5147C98.4529 30.5147 97.6493 30.2973 96.9547 29.8633C96.2595 29.4286 95.7091 28.865 95.3043 28.1704V34.9228H92.9155V18.9415H95.0218V20.982C95.4565 20.3027 96.0169 19.759 96.7048 19.3536C97.3927 18.9488 98.171 18.7461 99.0391 18.7461C99.8207 18.7461 100.537 18.9049 101.189 19.2233C101.841 19.5417 102.404 19.9691 102.882 20.5041C103.36 21.0405 103.733 21.6627 104.001 22.3725C104.269 23.0817 104.402 23.8261 104.402 24.6078C104.402 25.4333 104.28 26.2043 104.033 26.9208C103.787 27.6373 103.439 28.2595 102.991 28.7885C102.542 29.317 102.009 29.7364 101.395 30.0474C100.78 30.3598 100.103 30.5147 99.3648 30.5147ZM98.5838 28.4742C99.0896 28.4742 99.5495 28.3658 99.9623 28.1478C100.375 27.9305 100.729 27.6413 101.026 27.2798C101.323 26.9182 101.551 26.5054 101.71 26.0421C101.869 25.5782 101.949 25.1003 101.949 24.6078C101.949 24.0867 101.858 23.5955 101.677 23.1322C101.497 22.669 101.25 22.2635 100.939 21.9159C100.628 21.5683 100.255 21.2931 99.8207 21.091C99.3867 20.889 98.9161 20.7873 98.4096 20.7873C98.1052 20.7873 97.7869 20.8444 97.4539 20.9601C97.1215 21.0771 96.8098 21.2359 96.52 21.4387C96.2302 21.6414 95.9776 21.8767 95.7603 22.1445C95.5429 22.4124 95.3907 22.7055 95.3043 23.0232V25.9983C95.4486 26.3459 95.6373 26.6716 95.8693 26.9753C96.0999 27.2798 96.3578 27.5396 96.6396 27.7576C96.9221 27.9737 97.2292 28.1478 97.5629 28.2781C97.8952 28.4084 98.2355 28.4742 98.5838 28.4742Z" fill="#99A0A7"/>
<path fill-rule="evenodd" clip-rule="evenodd" d="M111.002 30.5147C110.105 30.5147 109.298 30.3552 108.581 30.0368C107.864 29.7191 107.253 29.291 106.746 28.756C106.24 28.2203 105.849 27.5935 105.574 26.877C105.299 26.1605 105.161 25.4114 105.161 24.6304C105.161 23.8487 105.299 23.099 105.574 22.3832C105.849 21.666 106.243 21.0405 106.758 20.5041C107.271 19.9691 107.886 19.5417 108.603 19.2233C109.319 18.9049 110.119 18.7461 111.002 18.7461C111.885 18.7461 112.685 18.9049 113.402 19.2233C114.118 19.5417 114.733 19.9691 115.247 20.5041C115.761 21.0405 116.155 21.666 116.431 22.3832C116.706 23.099 116.843 23.8487 116.843 24.6304C116.843 25.4114 116.706 26.1605 116.431 26.877C116.155 27.5935 115.761 28.2203 115.247 28.756C114.733 29.291 114.118 29.7191 113.402 30.0368C112.685 30.3552 111.885 30.5147 111.002 30.5147ZM107.615 24.6517C107.615 25.2027 107.702 25.7085 107.876 26.1724C108.05 26.635 108.288 27.0371 108.592 27.3775C108.896 27.7178 109.254 27.985 109.667 28.1804C110.08 28.3758 110.524 28.4742 111.002 28.4742C111.48 28.4742 111.925 28.3758 112.338 28.1804C112.75 27.985 113.108 27.7131 113.413 27.3662C113.717 27.0185 113.955 26.6144 114.13 26.1505C114.303 25.6872 114.389 25.1814 114.389 24.6304C114.389 24.0953 114.303 23.5915 114.13 23.1216C113.955 22.6503 113.717 22.2416 113.413 21.894C113.108 21.547 112.75 21.2758 112.338 21.0797C111.925 20.8843 111.48 20.7873 111.002 20.7873C110.539 20.7873 110.102 20.889 109.689 21.091C109.276 21.2931 108.918 21.5683 108.614 21.9159C108.31 22.2635 108.067 22.6723 107.886 23.1429C107.705 23.6134 107.615 24.1166 107.615 24.6517Z" fill="#99A0A7"/>
<mask id="mask1" mask-type="alpha" maskUnits="userSpaceOnUse" x="60" y="12" width="87" height="23">
<path d="M60.563 34.9227H146.196V12.5906H60.563V34.9227Z" fill="white"/>
</mask>
<g mask="url(#mask1)">
<path fill-rule="evenodd" clip-rule="evenodd" d="M118.321 30.2972H120.71V18.9414H118.321V30.2972Z" fill="#99A0A7"/>
<path fill-rule="evenodd" clip-rule="evenodd" d="M133.107 30.2971H130.718V23.9349C130.718 22.8641 130.548 22.0858 130.209 21.6006C129.868 21.1161 129.365 20.8734 128.699 20.8734C128.351 20.8734 128.005 20.9392 127.657 21.0689C127.31 21.1991 126.984 21.3846 126.68 21.6225C126.376 21.8611 126.104 22.1443 125.865 22.4693C125.627 22.7957 125.442 23.1533 125.312 23.5447V30.2971H122.924V18.9413H125.095V21.2211C125.529 20.4534 126.159 19.8499 126.984 19.4079C127.809 18.9672 128.721 18.7458 129.72 18.7458C130.4 18.7458 130.958 18.8688 131.392 19.1141C131.826 19.3613 132.169 19.6977 132.423 20.1244C132.676 20.5524 132.854 21.0436 132.955 21.6006C133.056 22.1582 133.107 22.7485 133.107 23.3706V30.2971Z" fill="#99A0A7"/>
<path fill-rule="evenodd" clip-rule="evenodd" d="M141.445 29.7105C141.141 29.856 140.721 30.0196 140.185 30.199C139.649 30.3805 139.078 30.4715 138.47 30.4715C138.093 30.4715 137.738 30.4203 137.406 30.3193C137.073 30.2183 136.779 30.0661 136.527 29.8627C136.273 29.6606 136.074 29.3961 135.93 29.0697C135.784 28.7454 135.712 28.3512 135.712 27.8873V20.7873H134.214V18.9416H135.712V15.2068H138.101V18.9416H140.576V20.7873H138.101V27.1276C138.13 27.5337 138.257 27.8262 138.481 28.0069C138.706 28.1877 138.983 28.2781 139.316 28.2781C139.649 28.2781 139.968 28.2203 140.272 28.1046C140.576 27.9883 140.801 27.8953 140.945 27.8215L141.445 29.7105Z" fill="#99A0A7"/>
<path fill-rule="evenodd" clip-rule="evenodd" d="M119.556 12.5906C119.852 12.5906 120.137 12.6471 120.409 12.7601C120.682 12.8737 120.924 13.0346 121.132 13.2433C121.342 13.4526 121.503 13.6933 121.616 13.9664C121.729 14.2396 121.786 14.5241 121.786 14.8199C121.786 15.115 121.729 15.3995 121.616 15.6726C121.503 15.9458 121.342 16.1864 121.132 16.3958C120.924 16.6045 120.682 16.7654 120.409 16.879C120.137 16.992 119.852 17.0485 119.556 17.0485C119.261 17.0485 118.976 16.992 118.704 16.879C118.43 16.7654 118.189 16.6045 117.981 16.3958C117.771 16.1864 117.61 15.9458 117.497 15.6726C117.384 15.3995 117.327 15.115 117.327 14.8199C117.327 14.5241 117.384 14.2396 117.497 13.9664C117.61 13.6933 117.771 13.4526 117.981 13.2433C118.189 13.0346 118.43 12.8737 118.704 12.7601C118.976 12.6471 119.261 12.5906 119.556 12.5906Z" fill="#99A0A7"/>
<path fill-rule="evenodd" clip-rule="evenodd" d="M143.984 19.4112C143.666 19.4112 143.375 19.358 143.108 19.2497C142.84 19.142 142.61 18.9925 142.413 18.8024C142.218 18.6123 142.064 18.3876 141.954 18.1291C141.845 17.8705 141.79 17.588 141.79 17.2823C141.79 16.9799 141.845 16.6994 141.954 16.4408C142.064 16.1823 142.218 15.9583 142.413 15.7695C142.61 15.5814 142.84 15.4338 143.108 15.3262C143.375 15.2178 143.666 15.1633 143.984 15.1633C144.302 15.1633 144.595 15.2178 144.864 15.3262C145.132 15.4338 145.366 15.5814 145.564 15.7695C145.762 15.9583 145.916 16.1823 146.029 16.4408C146.14 16.6994 146.196 16.9799 146.196 17.2823C146.196 17.588 146.14 17.8705 146.029 18.1291C145.916 18.3876 145.762 18.6123 145.564 18.8024C145.366 18.9925 145.132 19.142 144.864 19.2497C144.595 19.358 144.302 19.4112 143.984 19.4112ZM143.984 19.1586C144.255 19.1586 144.507 19.1134 144.74 19.0231C144.973 18.9327 145.177 18.8057 145.352 18.6415C145.526 18.4767 145.663 18.2793 145.761 18.05C145.859 17.8193 145.908 17.5661 145.908 17.2876C145.908 17.0251 145.86 16.7798 145.764 16.5518C145.668 16.3245 145.534 16.1278 145.361 15.9616C145.189 15.7948 144.984 15.6625 144.749 15.5668C144.513 15.4704 144.259 15.4226 143.984 15.4226C143.706 15.4226 143.451 15.4704 143.219 15.5668C142.987 15.6625 142.787 15.7948 142.616 15.9616C142.446 16.1278 142.313 16.3232 142.219 16.5492C142.125 16.7751 142.078 17.0184 142.078 17.2823C142.078 17.5488 142.125 17.7961 142.219 18.0227C142.313 18.2507 142.446 18.4488 142.616 18.6176C142.787 18.7864 142.987 18.9187 143.219 19.0144C143.451 19.1108 143.706 19.1586 143.984 19.1586ZM143.054 15.9756H144.19C144.308 15.9756 144.416 16.0001 144.517 16.0493C144.616 16.0985 144.702 16.163 144.773 16.2434C144.843 16.3232 144.899 16.4149 144.94 16.5173C144.981 16.6196 145.002 16.7226 145.002 16.829C145.002 17.0058 144.953 17.164 144.858 17.3056C144.761 17.4471 144.635 17.5422 144.479 17.594L145.108 18.5884H144.584L144.008 17.6758H143.519V18.5884H143.054V15.9756ZM144.161 17.2697C144.282 17.2697 144.376 17.2298 144.443 17.15C144.51 17.0696 144.543 16.9619 144.543 16.829C144.543 16.6914 144.505 16.5844 144.428 16.508C144.352 16.4315 144.256 16.3936 144.143 16.3936H143.519V17.2697H144.161Z" fill="#99A0A7"/>
</g>
</svg>
