<svg width="36" height="36" viewBox="0 0 36 36" fill="none" xmlns="http://www.w3.org/2000/svg">
    <path fill-rule="evenodd" clip-rule="evenodd" d="M20.4496 21.5781C20.8888 21.5781 21.2803 21.4607 21.6252 21.2259C21.9694 20.9913 22.237 20.6907 22.4269 20.3242V18.4344C22.237 17.9535 21.9456 17.5729 21.5543 17.2923C21.162 17.0116 20.746 16.8711 20.3067 16.8711C19.998 16.8711 19.716 16.9372 19.4608 17.0688C19.2051 17.2006 18.9854 17.3778 18.8021 17.6012C18.6172 17.8245 18.4751 18.0824 18.3744 18.3742C18.2728 18.6664 18.223 18.9671 18.223 19.2763C18.223 19.6083 18.2787 19.9149 18.3918 20.1951C18.5048 20.4761 18.6622 20.719 18.8644 20.9252C19.0659 21.1314 19.3008 21.2919 19.5675 21.4062C19.835 21.5209 20.1285 21.5781 20.4496 21.5781ZM19.4696 23.7597C18.8521 23.7597 18.2882 23.6395 17.7772 23.399C17.2669 23.1585 16.8305 22.8321 16.4682 22.4198C16.1057 22.0076 15.8237 21.5268 15.6223 20.977C15.42 20.4272 15.3193 19.8376 15.3193 19.2075C15.3193 18.5435 15.4259 17.9277 15.6397 17.3608C15.8536 16.7938 16.1507 16.3018 16.5306 15.8834C16.9103 15.4653 17.3677 15.1361 17.9019 14.8957C18.4368 14.6553 19.0245 14.535 19.6661 14.535C20.3786 14.535 20.9983 14.6808 21.5274 14.973C22.0558 15.265 22.4806 15.6687 22.8009 16.1839V14.7066H25.2768V23.1072C25.2768 23.7944 25.1435 24.4125 24.876 24.9623C24.6087 25.512 24.2376 25.9787 23.7627 26.3624C23.288 26.7458 22.7176 27.0408 22.0529 27.2471C21.3876 27.4533 20.6569 27.5563 19.8618 27.5563C18.8521 27.5563 17.991 27.4018 17.2785 27.0926C16.566 26.7833 15.9427 26.3366 15.4085 25.7525L16.94 24.2581C17.2843 24.6359 17.712 24.9364 18.223 25.1598C18.7332 25.3831 19.2797 25.495 19.8618 25.495C20.2061 25.495 20.5322 25.4489 20.8418 25.3573C21.1497 25.2657 21.4231 25.1255 21.6607 24.9364C21.8985 24.7476 22.0855 24.5013 22.2218 24.1979C22.3581 23.8943 22.4269 23.5308 22.4269 23.1072V22.231C22.142 22.7349 21.7318 23.1155 21.1975 23.3731C20.6635 23.631 20.0873 23.7597 19.4696 23.7597Z" fill="black"/>
    <path fill-rule="evenodd" clip-rule="evenodd" d="M17.991 2.15068C9.25666 2.15068 2.15068 9.25666 2.15068 17.991C2.15068 26.7253 9.25666 33.8311 17.991 33.8311C26.7253 33.8311 33.8311 26.7253 33.8311 17.991C33.8311 9.25666 26.7253 2.15068 17.991 2.15068ZM17.991 35.9818C8.07063 35.9818 0 27.9112 0 17.991C0 8.07063 8.07063 0 17.991 0C27.9113 0 35.9819 8.07063 35.9819 17.991C35.9819 27.9112 27.9113 35.9818 17.991 35.9818Z" fill="black"/>
    <path fill-rule="evenodd" clip-rule="evenodd" d="M19.915 12.4161C18.5713 12.4569 17.386 12.8037 16.3581 13.4556C15.3304 14.1084 14.6028 15.0154 14.1754 16.1775V26.0244H11.4895V10.0614H13.9924V13.7617C14.5417 12.6607 15.2643 11.769 16.1602 11.0858C17.0552 10.4031 18.0113 10.0206 19.0299 9.93927H19.5488C19.6907 9.93927 19.8128 9.94945 19.915 9.96967V12.4161Z" fill="black"/>
    <path fill-rule="evenodd" clip-rule="evenodd" d="M26.0427 11.0881C26.0427 12.1457 25.1854 13.0031 24.1278 13.0031C23.0702 13.0031 22.2129 12.1457 22.2129 11.0881C22.2129 10.0305 23.0702 9.17328 24.1278 9.17328C25.1854 9.17328 26.0427 10.0305 26.0427 11.0881Z" fill="black"/>
    <path fill-rule="evenodd" clip-rule="evenodd" d="M31.875 34.0574C31.9383 34.0574 31.9874 34.0356 32.0222 33.9921C32.057 33.9486 32.0744 33.8907 32.0744 33.8185C32.0744 33.7444 32.0545 33.6868 32.0146 33.6454C31.9748 33.6038 31.9249 33.583 31.8656 33.583H31.5404V34.0574H31.875ZM31.2982 33.3572H31.8903C31.9516 33.3572 32.0084 33.3703 32.0606 33.3969C32.1128 33.4234 32.1571 33.4585 32.1939 33.502C32.2308 33.5453 32.26 33.5948 32.2814 33.65C32.3029 33.7052 32.3135 33.7612 32.3135 33.8185C32.3135 33.9142 32.2887 34 32.2385 34.0765C32.1882 34.1529 32.1223 34.2048 32.0406 34.2323L32.3687 34.7702H32.0959L31.7952 34.2768H31.5404V34.7702H31.2982V33.3572ZM31.7829 35.079C31.9239 35.079 32.0555 35.0546 32.1771 35.0059C32.2988 34.9569 32.4052 34.8882 32.4961 34.7989C32.5873 34.7099 32.6584 34.6033 32.7094 34.479C32.7605 34.3549 32.7862 34.2175 32.7862 34.0669C32.7862 33.9249 32.761 33.7922 32.7109 33.6691C32.6607 33.546 32.5906 33.4394 32.5008 33.3493C32.4108 33.2591 32.3044 33.1879 32.1818 33.136C32.0588 33.084 31.9262 33.0581 31.7829 33.0581C31.6376 33.0581 31.5048 33.084 31.384 33.136C31.2634 33.1879 31.1586 33.2591 31.0696 33.3493C30.9808 33.4394 30.9117 33.5453 30.8626 33.6674C30.8134 33.7894 30.7889 33.9215 30.7889 34.0638C30.7889 34.2081 30.8134 34.3418 30.8626 34.4647C30.9117 34.5878 30.9808 34.6951 31.0696 34.7862C31.1586 34.8775 31.2634 34.9492 31.384 35.0009C31.5048 35.053 31.6376 35.079 31.7829 35.079ZM31.7829 35.2158C31.6172 35.2158 31.4649 35.1868 31.3258 35.1283C31.1866 35.0702 31.0662 34.9892 30.9637 34.8863C30.8617 34.7835 30.7816 34.6621 30.7246 34.522C30.6671 34.382 30.6384 34.2292 30.6384 34.0638C30.6384 33.9005 30.6671 33.7487 30.7246 33.6087C30.7816 33.4686 30.8617 33.3476 30.9637 33.2456C31.0662 33.144 31.1866 33.0639 31.3258 33.0055C31.4649 32.9472 31.6172 32.918 31.7829 32.918C31.9484 32.918 32.1014 32.9472 32.2416 33.0055C32.3818 33.0639 32.5033 33.144 32.6067 33.2456C32.7099 33.3476 32.7905 33.4686 32.849 33.6087C32.9073 33.7487 32.9363 33.9005 32.9363 34.0638C32.9363 34.2292 32.9073 34.382 32.849 34.522C32.7905 34.6621 32.7099 34.7835 32.6067 34.8863C32.5033 34.9892 32.3818 35.0702 32.2416 35.1283C32.1014 35.1868 31.9484 35.2158 31.7829 35.2158Z" fill="black"/>
</svg>
