<svg width="48" height="48" viewBox="0 0 48 48" fill="none" xmlns="http://www.w3.org/2000/svg">
    <path fill-rule="evenodd" clip-rule="evenodd"
        d="M27.2659 28.7707C27.8516 28.7707 28.3734 28.6141 28.8334 28.301C29.2923 27.9883 29.6492 27.5874 29.9023 27.0988V24.5791C29.6492 23.9378 29.2606 23.4304 28.7389 23.0562C28.2158 22.682 27.6612 22.4946 27.0753 22.4946C26.6637 22.4946 26.2878 22.5828 25.9475 22.7583C25.6065 22.934 25.3136 23.1703 25.0692 23.4681C24.8227 23.7658 24.6333 24.1098 24.499 24.4988C24.3635 24.8884 24.2971 25.2893 24.2971 25.7016C24.2971 26.1442 24.3713 26.553 24.5222 26.9266C24.6728 27.3014 24.8827 27.6252 25.1522 27.9001C25.421 28.1751 25.7341 28.389 26.0898 28.5414C26.4464 28.6944 26.8378 28.7707 27.2659 28.7707ZM25.9592 31.6794C25.1359 31.6794 24.384 31.5191 23.7027 31.1985C23.0224 30.8779 22.4404 30.4426 21.9573 29.8929C21.474 29.3433 21.0981 28.7023 20.8295 27.9691C20.5598 27.2361 20.4255 26.45 20.4255 25.6099C20.4255 24.7245 20.5676 23.9034 20.8527 23.1475C21.1378 22.3916 21.534 21.7355 22.0405 21.1777C22.5468 20.6203 23.1566 20.1813 23.8689 19.8608C24.5822 19.5402 25.3658 19.3799 26.2212 19.3799C27.1712 19.3799 27.9975 19.5742 28.703 19.9638C29.4075 20.3532 29.9738 20.8915 30.401 21.5784V19.6086H33.7021V30.8094C33.7021 31.7257 33.5244 32.5498 33.1678 33.2829C32.8113 34.0159 32.3165 34.6382 31.6833 35.1497C31.0504 35.6609 30.2899 36.0543 29.4036 36.3292C28.5165 36.6042 27.5423 36.7416 26.4821 36.7416C25.1359 36.7416 23.9878 36.5356 23.0377 36.1233C22.0877 35.7109 21.2567 35.1153 20.5444 34.3365L22.5864 32.344C23.0455 32.8477 23.6158 33.2483 24.2971 33.5462C24.9774 33.8439 25.7061 33.9932 26.4821 33.9932C26.9413 33.9932 27.376 33.9317 27.7888 33.8095C28.1994 33.6874 28.5638 33.5006 28.8807 33.2483C29.1978 32.9967 29.4471 32.6682 29.6289 32.2637C29.8105 31.8589 29.9023 31.3742 29.9023 30.8094V29.6412C29.5225 30.3131 28.9754 30.8205 28.2631 31.1639C27.551 31.5078 26.7828 31.6794 25.9592 31.6794Z"
        fill="#ffffff" />
    <path fill-rule="evenodd" clip-rule="evenodd"
        d="M23.988 2.86758C12.3422 2.86758 2.86758 12.3422 2.86758 23.988C2.86758 35.6337 12.3422 45.1081 23.988 45.1081C35.6337 45.1081 45.1081 35.6337 45.1081 23.988C45.1081 12.3422 35.6337 2.86758 23.988 2.86758ZM23.988 47.9757C10.7608 47.9757 0 37.2149 0 23.988C0 10.7608 10.7608 0 23.988 0C37.2151 0 47.9759 10.7608 47.9759 23.988C47.9759 37.2149 37.2151 47.9757 23.988 47.9757Z"
        fill="#ffffff" />
    <path fill-rule="evenodd" clip-rule="evenodd"
        d="M26.5534 16.5549C24.7617 16.6093 23.1813 17.0716 21.8108 17.9409C20.4405 18.8113 19.4705 20.0205 18.9006 21.5701V34.6992H15.3193V13.4153H18.6565V18.3491C19.389 16.881 20.3524 15.6921 21.5469 14.7811C22.7402 13.8709 24.0151 13.3608 25.3732 13.2524H26.065C26.2543 13.2524 26.4171 13.266 26.5534 13.293V16.5549Z"
        fill="#ffffff" />
    <path fill-rule="evenodd" clip-rule="evenodd"
        d="M34.7236 14.784C34.7236 16.1942 33.5805 17.3373 32.1704 17.3373C30.7602 17.3373 29.6172 16.1942 29.6172 14.784C29.6172 13.3739 30.7602 12.231 32.1704 12.231C33.5805 12.231 34.7236 13.3739 34.7236 14.784Z"
        fill="#ffffff" />
    <path fill-rule="evenodd" clip-rule="evenodd"
        d="M42.4999 45.4099C42.5843 45.4099 42.6497 45.3808 42.6961 45.3228C42.7425 45.2648 42.7657 45.1876 42.7657 45.0913C42.7657 44.9925 42.7392 44.9157 42.6859 44.8605C42.6329 44.805 42.5664 44.7773 42.4873 44.7773H42.0538V45.4099H42.4999ZM41.7307 44.4763H42.5202C42.602 44.4763 42.6778 44.4937 42.7474 44.5293C42.817 44.5646 42.876 44.6113 42.925 44.6693C42.9743 44.7271 43.0132 44.7931 43.0417 44.8667C43.0704 44.9403 43.0845 45.015 43.0845 45.0913C43.0845 45.219 43.0514 45.3334 42.9844 45.4354C42.9175 45.5372 42.8296 45.6064 42.7206 45.6431L43.1581 46.3603H42.7944L42.3934 45.7024H42.0538V46.3603H41.7307V44.4763ZM42.377 46.772C42.5651 46.772 42.7405 46.7394 42.9027 46.6746C43.0649 46.6092 43.2067 46.5176 43.328 46.3986C43.4496 46.2798 43.5444 46.1377 43.6124 45.972C43.6805 45.8065 43.7147 45.6233 43.7147 45.4225C43.7147 45.2332 43.6811 45.0562 43.6144 44.8921C43.5474 44.728 43.454 44.5859 43.3342 44.4658C43.2142 44.3454 43.0724 44.2505 42.9089 44.1813C42.7449 44.1121 42.5682 44.0774 42.377 44.0774C42.1832 44.0774 42.0063 44.1121 41.8452 44.1813C41.6843 44.2505 41.5447 44.3454 41.426 44.4658C41.3076 44.5859 41.2154 44.7271 41.15 44.8898C41.0844 45.0526 41.0517 45.2286 41.0517 45.4184C41.0517 45.6107 41.0844 45.7891 41.15 45.953C41.2154 46.1171 41.3076 46.2601 41.426 46.3816C41.5447 46.5033 41.6843 46.5989 41.8452 46.6679C42.0063 46.7374 42.1832 46.772 42.377 46.772ZM42.377 46.9545C42.1561 46.9545 41.953 46.9157 41.7676 46.8378C41.582 46.7603 41.4214 46.6523 41.2848 46.515C41.1487 46.378 41.042 46.2161 40.966 46.0293C40.8893 45.8427 40.8511 45.6389 40.8511 45.4184C40.8511 45.2007 40.8893 44.9982 40.966 44.8117C41.042 44.6248 41.1487 44.4635 41.2848 44.3275C41.4214 44.1921 41.582 44.0852 41.7676 44.0073C41.953 43.9296 42.1561 43.8906 42.377 43.8906C42.5978 43.8906 42.8017 43.9296 42.9886 44.0073C43.1756 44.0852 43.3375 44.1921 43.4754 44.3275C43.6131 44.4635 43.7205 44.6248 43.7985 44.8117C43.8762 44.9982 43.9149 45.2007 43.9149 45.4184C43.9149 45.6389 43.8762 45.8427 43.7985 46.0293C43.7205 46.2161 43.6131 46.378 43.4754 46.515C43.3375 46.6523 43.1756 46.7603 42.9886 46.8378C42.8017 46.9157 42.5978 46.9545 42.377 46.9545Z"
        fill="#ffffff" />
</svg>
