<svg width="51" height="51" viewBox="0 0 51 51" fill="none" xmlns="http://www.w3.org/2000/svg">
    <mask id="mask0" mask-type="alpha" maskUnits="userSpaceOnUse" x="4" y="2" width="43" height="47">
        <path fill-rule="evenodd" clip-rule="evenodd" d="M4.78125 2.39062H46.2187V48.9325H4.78125V2.39062Z"
            fill="white" />
    </mask>
    <g mask="url(#mask0)">
        <path fill-rule="evenodd" clip-rule="evenodd"
            d="M4.78125 15.959V35.3645C4.78125 36.7439 5.51783 38.0186 6.71341 38.7071L23.575 48.4179C24.7666 49.1042 26.2337 49.1042 27.4253 48.4179L44.2866 38.7071C45.4822 38.0186 46.2188 36.7439 46.2188 35.3645V15.959C46.2188 14.5794 45.4822 13.3049 44.2866 12.6164L27.4253 2.90541C26.2337 2.21903 24.7666 2.21903 23.575 2.90541L6.71341 12.6164C5.51783 13.3049 4.78125 14.5794 4.78125 15.959Z"
            fill="#F47F27" />
    </g>
    <path fill-rule="evenodd" clip-rule="evenodd"
        d="M23.1867 29.9611C22.6862 29.9768 22.2424 30.0926 21.8546 30.3072C21.4668 30.5229 21.1913 30.83 21.0261 31.229V34.9868H19.7346V28.846H20.9329V30.2196C21.1443 29.797 21.4197 29.4586 21.7603 29.2044C22.1008 28.9494 22.4671 28.8112 22.8584 28.7876H23.0517C23.1025 28.7876 23.1474 28.7911 23.1867 28.7988V29.9611Z"
        fill="white" />
    <path fill-rule="evenodd" clip-rule="evenodd"
        d="M27.3085 34.0009C27.5815 34.0009 27.8312 33.9412 28.0538 33.8243C28.2764 33.7064 28.4685 33.5502 28.6294 33.3544C28.7888 33.1589 28.9126 32.9363 28.9989 32.6858C29.0847 32.4348 29.1285 32.1766 29.1285 31.9102C29.1285 31.6289 29.0789 31.3625 28.9811 31.112C28.8834 30.8615 28.7508 30.6421 28.5821 30.4543C28.4135 30.2665 28.2121 30.1183 27.9773 30.0083C27.7425 29.8992 27.4883 29.8442 27.2142 29.8442C27.0498 29.8442 26.8779 29.8755 26.6981 29.9374C26.5172 30.0001 26.3498 30.0869 26.1923 30.1959C26.0361 30.3061 25.8988 30.4331 25.7819 30.5781C25.664 30.7231 25.5819 30.8817 25.5346 31.0536V32.6622C25.6133 32.8497 25.7158 33.0264 25.8406 33.1903C25.9652 33.3544 26.1047 33.4952 26.2574 33.6131C26.4104 33.7297 26.5756 33.8243 26.7565 33.8952C26.9366 33.9648 27.1207 34.0009 27.3085 34.0009ZM27.7311 35.1035C27.2376 35.1035 26.8038 34.9867 26.4274 34.7516C26.0518 34.5168 25.7538 34.2121 25.5346 33.8357V37.4878H24.2432V28.846H25.383V29.9496C25.618 29.582 25.9201 29.2877 26.2925 29.0685C26.6643 28.8502 27.0848 28.7402 27.5547 28.7402C27.9773 28.7402 28.3651 28.8268 28.7171 28.9987C29.0698 29.1705 29.3745 29.4024 29.633 29.6912C29.8917 29.9812 30.0928 30.3172 30.2378 30.7005C30.3828 31.0849 30.4548 31.4873 30.4548 31.9102C30.4548 32.3564 30.3884 32.7735 30.2559 33.1613C30.122 33.5478 29.9344 33.8849 29.6917 34.1707C29.4489 34.4562 29.1609 34.6831 28.8284 34.8517C28.4956 35.0204 28.1303 35.1035 27.7311 35.1035Z"
        fill="white" />
    <mask id="mask1" mask-type="alpha" maskUnits="userSpaceOnUse" x="4" y="2" width="43" height="47">
        <path fill-rule="evenodd" clip-rule="evenodd" d="M4.78125 48.9326H46.2188V2.39062H4.78125V48.9326Z"
            fill="white" />
    </mask>
    <g mask="url(#mask1)">
        <path fill-rule="evenodd" clip-rule="evenodd"
            d="M31.7339 34.9869H33.0254V28.8462H31.7339V34.9869ZM31.7339 27.8371H33.0254V26.416H31.7339V27.8371Z"
            fill="white" />
        <path fill-rule="evenodd" clip-rule="evenodd"
            d="M40.538 34.3214C39.6511 35.2081 38.2135 35.2081 37.3269 34.3214C36.4402 33.4348 36.4402 31.9972 37.3269 31.1103C38.2135 30.2236 39.6511 30.2236 40.538 31.1103C41.4247 31.9972 41.4247 33.4348 40.538 34.3214Z"
            fill="white" />
    </g>
</svg>
