<svg width="42" height="66" viewBox="0 0 42 66" fill="none" xmlns="http://www.w3.org/2000/svg">
    <path d="M1.2998 40.7002H40.6998" stroke="#CD5252" stroke-width="2" stroke-linecap="round"
        stroke-linejoin="round" />
    <path
        d="M10.4999 30.2002H5.1999C4.8999 30.2002 4.4999 30.3002 4.2999 30.6002C4.0999 30.8002 3.8999 31.2002 3.8999 31.5002V40.7002H11.7999V31.5002C11.7999 31.2002 11.6999 30.8002 11.3999 30.6002C11.1999 30.3002 10.7999 30.2002 10.4999 30.2002Z"
        stroke="#CD5252" stroke-width="2" stroke-linecap="round" stroke-linejoin="round" />
    <path
        d="M23.5996 22.3H18.3996C18.0996 22.3 17.6996 22.4001 17.4996 22.7001C17.2996 22.9001 17.0996 23.3 17.0996 23.6V40.7001H24.9996V23.6C24.9996 23.3 24.8996 22.9001 24.5996 22.7001C24.2996 22.5001 23.9996 22.3 23.5996 22.3Z"
        stroke="#CD5252" stroke-width="2" stroke-linecap="round" stroke-linejoin="round" />
    <path
        d="M36.7998 17.1001H31.5998C31.2998 17.1001 30.8998 17.2001 30.6998 17.5001C30.4998 17.7001 30.2998 18.1001 30.2998 18.4001V40.7001H38.1998V18.4001C38.1998 18.1001 38.0998 17.7001 37.7998 17.5001C37.3998 17.2001 37.0998 17.1001 36.7998 17.1001Z"
        stroke="#CD5252" stroke-width="2" stroke-linecap="round" stroke-linejoin="round" />
    <path
        d="M12.0999 58.2001C11.3999 58.2001 10.7999 58.1001 10.0999 57.9001C9.3999 57.7001 8.8999 57.4001 8.3999 57.0001L9.0999 55.9001C9.5999 56.3001 10.0999 56.5001 10.5999 56.7001C11.0999 56.9001 11.5999 57.0001 12.0999 57.0001C12.5999 57.0001 12.9999 56.9001 13.2999 56.7001C13.5999 56.5001 13.7999 56.2001 13.7999 55.8001C13.7999 55.4001 13.5999 55.2001 13.2999 55.0001C12.9999 54.8001 12.3999 54.7001 11.6999 54.5001C11.1999 54.4001 10.6999 54.2001 10.3999 54.1001C9.9999 54.0001 9.6999 53.8001 9.4999 53.7001C9.1999 53.4001 8.9999 53.2001 8.8999 53.0001C8.7999 52.8001 8.6999 52.5001 8.6999 52.2001C8.6999 51.8001 8.7999 51.4001 8.8999 51.1001C9.0999 50.8001 9.2999 50.5001 9.5999 50.3001C9.8999 50.1001 10.1999 49.9001 10.5999 49.8001C10.9999 49.7001 11.3999 49.6001 11.8999 49.6001C12.4999 49.6001 13.0999 49.7001 13.6999 49.9001C14.1999 50.1001 14.6999 50.4001 15.1999 50.7001L14.3999 51.8001C13.5999 51.2001 12.7999 50.9001 11.8999 50.9001C11.4999 50.9001 11.0999 51.0001 10.7999 51.2001C10.4999 51.4001 10.3999 51.7001 10.3999 52.1001C10.3999 52.3001 10.3999 52.4001 10.4999 52.5001C10.5999 52.6001 10.6999 52.7001 10.7999 52.8001C10.8999 52.9001 11.0999 53.0001 11.3999 53.0001C11.5999 53.1001 11.8999 53.1001 12.2999 53.2001C12.8999 53.3001 13.3999 53.5001 13.7999 53.6001C14.1999 53.7001 14.5999 53.9001 14.7999 54.1001C15.0999 54.3001 15.2999 54.5001 15.3999 54.8001C15.4999 55.0001 15.5999 55.3001 15.5999 55.7001C15.5999 56.5001 15.2999 57.1001 14.6999 57.6001C13.8999 57.9001 13.0999 58.2001 12.0999 58.2001ZM16.3999 53.8001C16.3999 53.2001 16.4999 52.7001 16.6999 52.1001C16.8999 51.6001 17.1999 51.1001 17.5999 50.7001C17.9999 50.3001 18.3999 50.0001 18.9999 49.8001C19.4999 49.6001 20.0999 49.4001 20.7999 49.4001C21.6999 49.4001 22.3999 49.6001 22.9999 50.0001C23.5999 50.4001 24.0999 50.9001 24.3999 51.5001L22.6999 52.0001C22.4999 51.6001 22.1999 51.4001 21.8999 51.2001C21.5999 51.0001 21.1999 50.9001 20.7999 50.9001C20.3999 50.9001 20.0999 51.0001 19.7999 51.1001C19.4999 51.2001 19.1999 51.4001 18.9999 51.7001C18.7999 51.9001 18.5999 52.2001 18.4999 52.6001C18.3999 52.9001 18.2999 53.3001 18.2999 53.7001C18.2999 54.1001 18.3999 54.5001 18.4999 54.8001C18.5999 55.1001 18.7999 55.4001 18.9999 55.7001C19.1999 56.0001 19.4999 56.2001 19.7999 56.3001C20.0999 56.4001 20.3999 56.5001 20.7999 56.5001C20.9999 56.5001 21.1999 56.5001 21.3999 56.4001C21.5999 56.3001 21.7999 56.3001 21.9999 56.1001C22.1999 56.0001 22.2999 55.9001 22.4999 55.7001C22.5999 55.6001 22.6999 55.4001 22.7999 55.3001L24.4999 55.8001C24.1999 56.4001 23.7999 56.9001 23.0999 57.4001C22.3999 57.8001 21.6999 58.0001 20.7999 58.0001C20.0999 58.0001 19.5999 57.9001 18.9999 57.6001C18.4999 57.4001 17.9999 57.1001 17.5999 56.7001C17.1999 56.3001 16.8999 55.8001 16.6999 55.3001C16.5999 54.9001 16.3999 54.4001 16.3999 53.8001ZM28.1999 58.0001L24.9999 49.6001H26.7999L29.1999 56.5001L31.5999 49.6001H33.2999L30.0999 58.0001H28.1999Z"
        fill="#CD5252" />
</svg>
